<svg width="61" height="39" viewBox="0 0 61 39" fill="none" xmlns="http://www.w3.org/2000/svg">
<path fill-rule="evenodd" clip-rule="evenodd" d="M0.863077 17.1977L17.0835 0.826814C18.1794 -0.275605 20.0426 -0.275605 21.1385 0.826814L27.2212 7.00035C27.824 7.55156 27.824 8.48862 27.2212 9.03983L22.1249 14.2212C21.6317 14.7173 20.8098 14.7724 20.2618 14.3314L19.0562 13.1188C18.0698 12.1266 18.0698 12.1266 18.0698 14.1661C18.0698 16.9221 18.0698 19.623 18.0698 22.324C18.0698 24.3634 18.0698 24.3634 20.0974 24.3634C22.8373 24.3634 25.5224 24.3634 28.2624 24.3634C30.2899 24.3634 30.2351 24.3634 29.2487 23.3161C28.9199 22.9854 28.5363 22.6547 28.2076 22.324C27.6596 21.7728 27.6596 20.8357 28.2076 20.2845C28.7555 19.7884 29.6871 19.7884 30.2351 20.2845L33.249 23.3161C33.797 23.8674 33.797 24.8044 33.249 25.3556L21.1385 37.6476C20.0426 38.75 18.1794 38.75 17.0835 37.6476L0.863077 21.2767C-0.287692 20.1191 -0.287692 18.3553 0.863077 17.1977Z" fill="white"/>
<path fill-rule="evenodd" clip-rule="evenodd" d="M59.2779 21.2767L43.0027 37.6476C41.9068 38.75 40.0436 38.75 38.9476 37.6476L32.865 31.474C32.317 30.9228 32.317 29.9858 32.865 29.4346L37.9613 24.3083C38.4544 23.8122 39.2764 23.702 39.8792 24.143L41.0848 25.3556C42.0711 26.3478 42.0711 26.3478 42.0711 24.3083C42.0711 21.5523 42.0711 18.9065 42.0711 16.1504C42.0711 14.111 42.0711 14.111 40.0436 14.111C37.3037 14.111 34.6185 14.111 31.8786 14.111C29.8511 14.111 29.8511 14.111 30.8922 15.1582C31.221 15.489 31.5498 15.8197 31.9334 16.1504C32.4814 16.7568 32.4814 17.6387 31.9334 18.1899C31.3306 18.7411 30.4539 18.7411 29.9059 18.1899L26.8919 15.1582C26.344 14.607 26.344 13.67 26.8919 13.1188L38.9476 0.826814C40.0436 -0.275605 41.9068 -0.275605 43.0027 0.826814L59.2779 17.1977C60.3739 18.3553 60.3739 20.1191 59.2779 21.2767Z" fill="white"/>
</svg>
