<svg width="102" height="123" viewBox="0 0 102 123" fill="none" xmlns="http://www.w3.org/2000/svg">
<circle cx="55.5556" cy="74.6496" r="27.3504" stroke="#278BFA" stroke-width="5"/>
<path d="M73.5043 94.3077L99.5726 120.376" stroke="#278BFA" stroke-width="5"/>
<path d="M96.5812 22.8034H2.56409" stroke="#278BFA" stroke-width="5"/>
<path fill-rule="evenodd" clip-rule="evenodd" d="M10 5H90C92.7614 5 95 7.23858 95 10V99.9453H100V10C100 4.47715 95.5228 0 90 0H10C4.47715 0 0 4.47715 0 10V115.803V120.803H5H79.4872V115.803H5V10C5 7.23858 7.23858 5 10 5Z" fill="#278BFA"/>
<path d="M18.8034 39.4615H30.7692" stroke="#278BFA" stroke-width="5"/>
<path d="M41.8889 39.4615C41.8889 39.4615 78.6604 39.4615 83.3334 39.4615" stroke="#278BFA" stroke-width="5"/>
<path d="M41.8889 63C41.8889 63 76.6604 63 81.3334 63" stroke="#278BFA" stroke-width="5"/>
<path d="M18.8034 63.2308H29.9145" stroke="#278BFA" stroke-width="5"/>
<path d="M41.8889 87C41.8889 87 75.6604 87 80.3334 87" stroke="#278BFA" stroke-width="5"/>
<path d="M18.8034 87.4701H30.7692" stroke="#278BFA" stroke-width="5"/>
</svg>
