<?xml version="1.0" encoding="utf-8"?>
<!-- Generator: Adobe Illustrator 17.1.0, SVG Export Plug-In . SVG Version: 6.00 Build 0)  -->
<!DOCTYPE svg PUBLIC "-//W3C//DTD SVG 1.1//EN" "http://www.w3.org/Graphics/SVG/1.1/DTD/svg11.dtd">
<svg version="1.1" id="Capa_1" xmlns="http://www.w3.org/2000/svg" xmlns:xlink="http://www.w3.org/1999/xlink" x="0px" y="0px"
	 viewBox="34.1 59.6 187 255" enable-background="new 34.1 59.6 187 255" xml:space="preserve">
<g>
	<g>
		<g>
			<path fill="#1E88E5" d="M93.7,126.2c0-18.7,15.2-33.8,33.8-33.8s33.8,15.2,33.8,33.8V160h32.8v-33.8c0-36.9-30-66.6-66.6-66.6
				s-66.6,29.8-66.6,66.6V160h32.8L93.7,126.2L93.7,126.2z"/>
			<path fill="#1E88E5" d="M202.9,171H52.1c-10,0-18,8.1-18,18v107.6c0,10,8.1,18,18,18h151c10,0,18-8.1,18-18V189
				C221.1,179.1,213,171,202.9,171z M142.3,274.9h-29.6l5.9-31.4c-5.1-3-8.7-8.7-8.7-15c0-9.7,7.9-17.6,17.6-17.6
				s17.6,7.9,17.6,17.6c0,6.5-3.4,11.9-8.7,15L142.3,274.9z"/>
		</g>
	</g>
</g>
</svg>
