<svg width="12" height="9" viewBox="0 0 12 9" fill="none" xmlns="http://www.w3.org/2000/svg">
<path fill-rule="evenodd" clip-rule="evenodd" d="M0 4.04068C0.677522 2.69378 2.8164 0 5.95173 0C9.08707 0 11.2903 2.69378 12 4.04068C11.3873 5.37932 9.31982 8.0566 5.95173 8.0566C2.58365 8.0566 0.580542 5.37932 0 4.04068ZM6.0009 6.63608C7.44112 6.63608 8.60865 5.46855 8.60865 4.02833C8.60865 2.58811 7.44112 1.42058 6.0009 1.42058C4.56068 1.42058 3.39315 2.58811 3.39315 4.02833C3.39315 5.46855 4.56068 6.63608 6.0009 6.63608Z" fill="#AEBFD0"/>
<path fill-rule="evenodd" clip-rule="evenodd" d="M4.86663 3.90743C5.4265 3.90743 5.88035 3.45357 5.88035 2.89371C5.88035 2.74473 5.84822 2.60326 5.7905 2.47584C5.85914 2.46666 5.92918 2.46191 6.00033 2.46191C6.86562 2.46191 7.56707 3.16337 7.56707 4.02865C7.56707 4.89394 6.86562 5.59539 6.00033 5.59539C5.13505 5.59539 4.43359 4.89394 4.43359 4.02865C4.43359 3.95691 4.43842 3.88629 4.44775 3.81711C4.57543 3.87512 4.71726 3.90743 4.86663 3.90743Z" fill="#AEBFD0"/>
</svg>
